<svg width="39" height="39" viewBox="0 0 39 39" fill="none" xmlns="http://www.w3.org/2000/svg">
<path d="M18.9541 12.2197C19.2841 11.2066 20.7174 11.2066 21.0463 12.2197L22.2233 15.8409C22.2952 16.0614 22.435 16.2536 22.6226 16.3899C22.8103 16.5262 23.0363 16.5997 23.2683 16.5999H27.0765C28.1424 16.5999 28.5846 17.9639 27.7233 18.5909L24.6433 20.8283C24.4552 20.9647 24.3152 21.1572 24.2432 21.3781C24.1713 21.599 24.1712 21.8371 24.2429 22.0581L25.4199 25.6793C25.7499 26.6924 24.5894 27.5361 23.7259 26.9091L20.6459 24.6717C20.458 24.5353 20.2318 24.4618 19.9996 24.4618C19.7675 24.4618 19.5412 24.5353 19.3534 24.6717L16.2734 26.9091C15.411 27.5361 14.2516 26.6924 14.5805 25.6793L15.7575 22.0581C15.8292 21.8371 15.829 21.599 15.7571 21.3781C15.6852 21.1572 15.5451 20.9647 15.3571 20.8283L12.2782 18.592C11.4169 17.965 11.8602 16.601 12.925 16.601H16.7321C16.9642 16.601 17.1904 16.5276 17.3783 16.3913C17.5662 16.255 17.7062 16.0627 17.7782 15.842L18.9552 12.2208L18.9541 12.2197Z" fill="#FFF615"/>
</svg>
